# xmcd CD database file
#
# Track frame offsets:
#	150
#	24270
#	46707
#	70692
#
# Disc length: 1238 seconds
#
# Revision: 0
# Processed by: cddbd v1.5.1PL0 Copyright (c) Steve Scherf et al.
# Submitted via: CDex 1.51
#
DISCID=2304d404
DTITLE=This Time - 気まぐれな恋していい
DYEAR=1995
DGENRE=JPop
TTITLE0=気まぐれな恋していい
TTITLE1=黄昏
TTITLE2=気まぐれな恋していい(karaoke)
TTITLE3=黄昏(karaoke)
EXTD=YEAR: 1995
EXTT0=
EXTT1=
EXTT2=
EXTT3=
PLAYORDER=
